{"asset":{"generator":"3D Builder","version":"2.0"},"scene":0,"scenes":[{"nodes":[0]}],"nodes":[{"mesh":0,"matrix":[1.0000002384185791,5.96047158296642E-8,6.3995173604780575E-7,0,-5.6544610060882405E-7,3.5165260214853333E-7,1.0000003576278687,0,-7.4505990710349579E-8,-0.9999997615814209,3.5165265899195219E-7,0,-0.0011515183141455054,0.49999955296516418,-0.0025004802737385035,1]}],"meshes":[{"primitives":[{"attributes":{"POSITION":0},"mode":4,"indices":1,"material":0}]}],"materials":[{"name":"Default","pbrMetallicRoughness":{"baseColorFactor":[0.50288659334182739,0.50288659334182739,0.50288659334182739,1],"metallicFactor":0,"roughnessFactor":1},"alphaMode":"OPAQUE"}],"accessors":[{"bufferView":0,"byteOffset":0,"count":244,"componentType":5126,"type":"VEC3","min":[3.8107781410217285,-0.46834531426429749,5.3644180297851563E-7],"max":[5.0401430130004883,0.76651036739349365,0.49999895691871643]},{"bufferView":1,"byteOffset":0,"count":1452,"componentType":5125,"type":"SCALAR"}],"bufferViews":[{"buffer":0,"byteOffset":0,"byteLength":2928,"byteStride":12,"target":34962},{"buffer":0,"byteOffset":2928,"byteLength":5808,"target":34963}],"buffers":[{"byteLength":8736,"uri":"carbon.bin"}]}