{"asset":{"generator":"3D Builder","version":"2.0"},"scene":0,"scenes":[{"nodes":[0]}],"nodes":[{"mesh":0,"matrix":[1.0000002384185791,5.96047158296642E-8,6.3995173604780575E-7,0,-5.6544610060882405E-7,3.5165260214853333E-7,1.0000003576278687,0,-7.4505990710349579E-8,-0.9999997615814209,3.5165265899195219E-7,0,-0.0011515183141455054,0.49999955296516418,-0.0025004802737385035,1]}],"meshes":[{"primitives":[{"attributes":{"POSITION":0},"mode":4,"indices":1,"material":0}]}],"materials":[{"name":"Default","pbrMetallicRoughness":{"baseColorFactor":[0.50288659334182739,0.50288659334182739,0.50288659334182739,1],"metallicFactor":0,"roughnessFactor":1},"alphaMode":"OPAQUE"}],"accessors":[{"bufferView":0,"byteOffset":0,"count":484,"componentType":5126,"type":"VEC3","min":[-0.1009228453040123,1.1440778970718384,2.0861625671386719E-7],"max":[1.6820183992385864,2.5432913303375244,0.49999868869781494]},{"bufferView":1,"byteOffset":0,"count":2892,"componentType":5125,"type":"SCALAR"}],"bufferViews":[{"buffer":0,"byteOffset":0,"byteLength":5808,"byteStride":12,"target":34962},{"buffer":0,"byteOffset":5808,"byteLength":11568,"target":34963}],"buffers":[{"byteLength":17376,"uri":"perry.bin"}]}