{"asset":{"generator":"3D Builder","version":"2.0"},"scene":0,"scenes":[{"nodes":[0]}],"nodes":[{"mesh":0,"matrix":[1.0000002384185791,5.96047158296642E-8,6.3995173604780575E-7,0,-5.6544610060882405E-7,3.5165260214853333E-7,1.0000003576278687,0,-7.4505990710349579E-8,-0.9999997615814209,3.5165265899195219E-7,0,-0.0011515183141455054,0.49999955296516418,-0.0025004802737385035,1]}],"meshes":[{"primitives":[{"attributes":{"POSITION":0},"mode":4,"indices":1,"material":0}]}],"materials":[{"name":"Default","pbrMetallicRoughness":{"baseColorFactor":[0.50288659334182739,0.50288659334182739,0.50288659334182739,1],"metallicFactor":0,"roughnessFactor":1},"alphaMode":"OPAQUE"}],"accessors":[{"bufferView":0,"byteOffset":0,"count":100,"componentType":5126,"type":"VEC3","min":[3.1174907684326172,-2.0446789264678955,8.9406967163085938E-7],"max":[4.4054622650146484,-1.1887800693511963,0.49999925494194031]},{"bufferView":1,"byteOffset":0,"count":588,"componentType":5125,"type":"SCALAR"}],"bufferViews":[{"buffer":0,"byteOffset":0,"byteLength":1200,"byteStride":12,"target":34962},{"buffer":0,"byteOffset":1200,"byteLength":2352,"target":34963}],"buffers":[{"byteLength":3552,"uri":"wyoming.bin"}]}