{"asset":{"generator":"3D Builder","version":"2.0"},"scene":0,"scenes":[{"nodes":[0]}],"nodes":[{"mesh":0,"matrix":[1.0000002384185791,5.96047158296642E-8,6.3995173604780575E-7,0,-5.6544610060882405E-7,3.5165260214853333E-7,1.0000003576278687,0,-7.4505990710349579E-8,-0.9999997615814209,3.5165265899195219E-7,0,-0.0011515183141455054,0.49999955296516418,-0.0025004802737385035,1]}],"meshes":[{"primitives":[{"attributes":{"POSITION":0},"mode":4,"indices":1,"material":0}]}],"materials":[{"name":"Default","pbrMetallicRoughness":{"baseColorFactor":[0.50288659334182739,0.50288659334182739,0.50288659334182739,1],"metallicFactor":0,"roughnessFactor":1},"alphaMode":"OPAQUE"}],"accessors":[{"bufferView":0,"byteOffset":0,"count":286,"componentType":5126,"type":"VEC3","min":[-3.718761682510376,-1.1676720380783081,6.2584877014160156E-7],"max":[-2.5266149044036865,0.28788954019546509,0.499999076128006]},{"bufferView":1,"byteOffset":0,"count":1704,"componentType":5125,"type":"SCALAR"}],"bufferViews":[{"buffer":0,"byteOffset":0,"byteLength":3432,"byteStride":12,"target":34962},{"buffer":0,"byteOffset":3432,"byteLength":6816,"target":34963}],"buffers":[{"byteLength":10248,"uri":"jefferson.bin"}]}