{"asset":{"generator":"3D Builder","version":"2.0"},"scene":0,"scenes":[{"nodes":[0]}],"nodes":[{"mesh":0,"matrix":[1,5.960465898624534E-8,6.399519634214812E-7,0,-5.6544598692198633E-7,3.516522895097296E-7,0.99999988079071045,0,-7.4505990710349579E-8,-0.99999988079071045,3.5165226108802017E-7,0,-0.001151519943960011,0.49999994039535522,-0.0025004793424159288,1]}],"meshes":[{"primitives":[{"attributes":{"POSITION":0},"mode":4,"indices":1,"material":0}]}],"materials":[{"name":"Default","pbrMetallicRoughness":{"baseColorFactor":[0.50288659334182739,0.50288659334182739,0.50288659334182739,1],"metallicFactor":0,"roughnessFactor":1},"alphaMode":"OPAQUE"}],"accessors":[{"bufferView":0,"byteOffset":0,"count":80,"componentType":5126,"type":"VEC3","min":[-3.0882399082183838,-3.0849299430847168,1.0132799843631801E-6],"max":[-1.345020055770874,-1.8511799573898315,0.49999898672103882]},{"bufferView":1,"byteOffset":0,"count":468,"componentType":5125,"type":"SCALAR"}],"bufferViews":[{"buffer":0,"byteOffset":0,"byteLength":960,"byteStride":12,"target":34962},{"buffer":0,"byteOffset":960,"byteLength":1872,"target":34963}],"buffers":[{"byteLength":2832,"uri":"mckean.bin"}]}