{"asset":{"generator":"3D Builder","version":"2.0"},"scene":0,"scenes":[{"nodes":[0]}],"nodes":[{"mesh":0,"matrix":[39.370079040527344,0,0,0,0,-4.6932791519793682E-6,-39.370075225830078,0,0,39.370075225830078,-4.6932791519793682E-6,0,0,0.000595977995544672,-7.1046120375672928E-11,1]}],"meshes":[{"primitives":[{"attributes":{"POSITION":0,"TEXCOORD_0":1},"mode":4,"indices":2,"material":0}]}],"materials":[{"pbrMetallicRoughness":{"baseColorFactor":[1,1,1,1],"metallicFactor":1,"roughnessFactor":1,"baseColorTexture":{"index":0,"texCoord":0},"metallicRoughnessTexture":{"index":1,"texCoord":0}},"alphaMode":"OPAQUE"}],"textures":[{"source":0,"sampler":0},{"source":1,"sampler":0}],"images":[{"uri":"4234018758_1024x1024_6195987693227547908.png"},{"uri":"3890412499_512x512_17319628118832143767.png"}],"samplers":[{"magFilter":9729,"wrapS":10497,"wrapT":10497}],"accessors":[{"bufferView":0,"byteOffset":0,"count":1051,"componentType":5126,"type":"VEC3","min":[-0.00014223555626813322,-0.0033752648159861565,-1.5137842638068832E-5],"max":[0.00014128668408375233,0.0033752648159861565,0.00025488334358669817]},{"bufferView":1,"byteOffset":0,"count":1051,"componentType":5126,"type":"VEC2"},{"bufferView":2,"byteOffset":0,"count":3216,"componentType":5125,"type":"SCALAR"}],"bufferViews":[{"buffer":0,"byteOffset":0,"byteLength":12612,"byteStride":12,"target":34962},{"buffer":0,"byteOffset":12612,"byteLength":8408,"byteStride":8,"target":34962},{"buffer":0,"byteOffset":21020,"byteLength":12864,"target":34963}],"buffers":[{"byteLength":33884,"uri":"Pencil.bin"}]}