{"asset":{"generator":"3D Builder","version":"2.0"},"scene":0,"scenes":[{"nodes":[0,1]}],"nodes":[{"mesh":0,"matrix":[1,0,0,0,0,-1.1920928955078125E-7,-0.99999988079071045,0,0,0.99999988079071045,-1.1920928955078125E-7,0,0,0,0,1]},{"mesh":1,"matrix":[1,0,0,0,0,-1.1920928955078125E-7,-0.99999988079071045,0,0,0.99999988079071045,-1.1920928955078125E-7,0,0,0,0,1]}],"meshes":[{"primitives":[{"attributes":{"POSITION":0,"TEXCOORD_0":2},"mode":4,"indices":3,"material":0},{"attributes":{"POSITION":1},"mode":4,"indices":4,"material":1}]},{"primitives":[{"attributes":{"POSITION":5,"TEXCOORD_0":7},"mode":4,"indices":8,"material":0},{"attributes":{"POSITION":6},"mode":4,"indices":9,"material":1}]}],"materials":[{"pbrMetallicRoughness":{"baseColorFactor":[1,1,1,1],"metallicFactor":1,"roughnessFactor":1,"baseColorTexture":{"index":0,"texCoord":0},"metallicRoughnessTexture":{"index":1,"texCoord":0}},"alphaMode":"OPAQUE"},{"name":"Green","pbrMetallicRoughness":{"baseColorFactor":[0.015208514407277107,0.49693304300308228,0.072271861135959625,1],"metallicFactor":0,"roughnessFactor":1},"alphaMode":"OPAQUE"}],"textures":[{"source":0,"sampler":0},{"source":1,"sampler":0}],"images":[{"uri":"4234018758_1024x1024_6195987693227547908.png"},{"uri":"3890412499_512x512_17319628118832143767.png"}],"samplers":[{"magFilter":9729,"wrapS":10497,"wrapT":10497}],"accessors":[{"bufferView":0,"byteOffset":0,"count":269,"componentType":5126,"type":"VEC3","min":[-0.0053872102871537209,-0.1328844428062439,0.000531537807546556],"max":[0.0053498535417020321,-0.10215117782354355,0.010099217295646667]},{"bufferView":0,"byteOffset":3228,"count":54,"componentType":5126,"type":"VEC3","min":[-0.0053872102871537209,-0.10215117782354355,0.000531537807546556],"max":[0.0053498535417020321,-0.10215117782354355,0.010099217295646667]},{"bufferView":1,"byteOffset":0,"count":269,"componentType":5126,"type":"VEC2"},{"bufferView":2,"byteOffset":0,"count":630,"componentType":5125,"type":"SCALAR"},{"bufferView":2,"byteOffset":2520,"count":156,"componentType":5125,"type":"SCALAR"},{"bufferView":3,"byteOffset":0,"count":14,"componentType":5126,"type":"VEC3","min":[-7.1832480898592621E-5,0.11545002460479736,0],"max":[-7.1832386311143637E-5,0.12650600075721741,0]},{"bufferView":3,"byteOffset":168,"count":9,"componentType":5126,"type":"VEC3","min":[-7.1832480898592621E-5,0.11545002460479736,0],"max":[-7.1832386311143637E-5,0.12650600075721741,0]},{"bufferView":4,"byteOffset":0,"count":14,"componentType":5126,"type":"VEC2"},{"bufferView":5,"byteOffset":0,"count":72,"componentType":5125,"type":"SCALAR"},{"bufferView":5,"byteOffset":288,"count":48,"componentType":5125,"type":"SCALAR"}],"bufferViews":[{"buffer":0,"byteOffset":0,"byteLength":3876,"byteStride":12,"target":34962},{"buffer":0,"byteOffset":3876,"byteLength":2152,"byteStride":8,"target":34962},{"buffer":0,"byteOffset":6028,"byteLength":3144,"target":34963},{"buffer":0,"byteOffset":9172,"byteLength":276,"byteStride":12,"target":34962},{"buffer":0,"byteOffset":9448,"byteLength":112,"byteStride":8,"target":34962},{"buffer":0,"byteOffset":9560,"byteLength":480,"target":34963}],"buffers":[{"byteLength":10040,"uri":"Tip.bin"}]}