{"asset":{"generator":"3D Builder","version":"2.0"},"scene":0,"scenes":[{"nodes":[0]}],"nodes":[{"children":[1,2]},{"mesh":0,"matrix":[0.99999994039535522,0,0,0,0,-1.1920928244535389E-7,-0.99999982118606567,0,0,0.99999982118606567,-1.1920928244535389E-7,0,0,0,0,1]},{"mesh":1,"matrix":[0.99999994039535522,0,0,0,0,-1.1920928244535389E-7,-0.99999982118606567,0,0,0.99999982118606567,-1.1920928244535389E-7,0,0,0,0,1]}],"meshes":[{"primitives":[{"attributes":{"POSITION":0,"TEXCOORD_0":2},"mode":4,"indices":3,"material":0},{"attributes":{"POSITION":1},"mode":4,"indices":4,"material":1}]},{"primitives":[{"attributes":{"POSITION":5,"TEXCOORD_0":7},"mode":4,"indices":8,"material":0},{"attributes":{"POSITION":6},"mode":4,"indices":9,"material":1}]}],"materials":[{"pbrMetallicRoughness":{"baseColorFactor":[1,1,1,1],"metallicFactor":0,"roughnessFactor":1,"baseColorTexture":{"index":0,"texCoord":0}},"alphaMode":"OPAQUE"},{"name":"Green_0","pbrMetallicRoughness":{"baseColorFactor":[0.015208560973405838,0.49693256616592407,0.072271741926670074,1],"metallicFactor":0,"roughnessFactor":1},"alphaMode":"OPAQUE"}],"textures":[{"source":0,"sampler":0}],"images":[{"uri":"4234018758_1024x1024_6195987693227547908.png"}],"samplers":[{"magFilter":9729,"wrapS":10497,"wrapT":10497}],"accessors":[{"bufferView":0,"byteOffset":0,"count":8,"componentType":5126,"type":"VEC3","min":[-7.18320079613477E-5,0.11545003205537796,0],"max":[-7.18320079613477E-5,0.12650600075721741,0]},{"bufferView":0,"byteOffset":96,"count":4,"componentType":5126,"type":"VEC3","min":[-7.18320079613477E-5,0.11545003205537796,0],"max":[-7.18320079613477E-5,0.12650600075721741,0]},{"bufferView":1,"byteOffset":0,"count":8,"componentType":5126,"type":"VEC2"},{"bufferView":2,"byteOffset":0,"count":72,"componentType":5125,"type":"SCALAR"},{"bufferView":2,"byteOffset":288,"count":48,"componentType":5125,"type":"SCALAR"},{"bufferView":3,"byteOffset":0,"count":249,"componentType":5126,"type":"VEC3","min":[-0.0053872102871537209,-0.10215115547180176,0.00053153804037719965],"max":[0.0053498544730246067,0.043874163180589676,0.010099218226969242]},{"bufferView":3,"byteOffset":2988,"count":108,"componentType":5126,"type":"VEC3","min":[-0.0053872102871537209,-0.10215115547180176,0.00053153804037719965],"max":[0.0053498544730246067,0.043874163180589676,0.010099218226969242]},{"bufferView":4,"byteOffset":0,"count":249,"componentType":5126,"type":"VEC2"},{"bufferView":5,"byteOffset":0,"count":648,"componentType":5125,"type":"SCALAR"},{"bufferView":5,"byteOffset":2592,"count":312,"componentType":5125,"type":"SCALAR"}],"bufferViews":[{"buffer":0,"byteOffset":0,"byteLength":144,"byteStride":12,"target":34962},{"buffer":0,"byteOffset":144,"byteLength":64,"byteStride":8,"target":34962},{"buffer":0,"byteOffset":208,"byteLength":480,"target":34963},{"buffer":0,"byteOffset":688,"byteLength":4284,"byteStride":12,"target":34962},{"buffer":0,"byteOffset":4972,"byteLength":1992,"byteStride":8,"target":34962},{"buffer":0,"byteOffset":6964,"byteLength":3840,"target":34963}],"buffers":[{"byteLength":10804,"uri":"Middle.bin"}]}